HIERARCHY
ROOT Hips
{
	OFFSET 0.000000 0.000000 0.000000
	CHANNELS 6 Xposition Yposition Zposition Zrotation Yrotation Xrotation 
	JOINT LowerBack
	{
		OFFSET 0.000000 0.000000 0.000000
		CHANNELS 3 Zrotation Yrotation Xrotation
		JOINT Spine
		{
			OFFSET 0.028270 2.035590 -0.193380
			CHANNELS 3 Zrotation Yrotation Xrotation
			JOINT Spine1
			{
				OFFSET 0.056720 2.048850 -0.042750
				CHANNELS 3 Zrotation Yrotation Xrotation
				JOINT Neck
				{
					OFFSET 0.000000 0.000000 0.000000
					CHANNELS 3 Zrotation Yrotation Xrotation
					JOINT Neck1
					{
						OFFSET -0.054170 1.746240 0.172020
						CHANNELS 3 Zrotation Yrotation Xrotation
						JOINT Head
						{
							OFFSET 0.104070 1.761360 -0.123970
							CHANNELS 3 Zrotation Yrotation Xrotation
							End Site
							{
								OFFSET 0.000000 0.000000 0.000000
							}
						}
					}
				}
				JOINT LeftShoulder
				{
					OFFSET 0.000000 0.000000 0.000000
					CHANNELS 3 Zrotation Yrotation Xrotation
					JOINT LeftArm
					{
						OFFSET 3.362410 1.200890 -0.311210
						CHANNELS 3 Zrotation Yrotation Xrotation
						JOINT LeftForeArm
						{
							OFFSET 4.983000 -0.000000 -0.000000
							CHANNELS 3 Zrotation Yrotation Xrotation
							JOINT LeftHand
							{
								OFFSET 3.483560 -0.000000 -0.000000
								CHANNELS 3 Zrotation Yrotation Xrotation
								JOINT LeftFingerBase
								{
									OFFSET 0.000000 0.000000 0.000000
									CHANNELS 3 Zrotation Yrotation Xrotation
									JOINT LeftHandIndex1
									{
										OFFSET 0.715260 -0.000000 -0.000000
										CHANNELS 3 Zrotation Yrotation Xrotation
										End Site
										{
											OFFSET 0.000000 0.000000 0.000000
										}
									}
								}
								JOINT LThumb
								{
									OFFSET 0.000000 0.000000 0.000000
									CHANNELS 3 Zrotation Yrotation Xrotation
									End Site
									{
										OFFSET 0.000000 0.000000 0.000000
									}
								}
							}
						}
					}
				}
				JOINT RightShoulder
				{
					OFFSET 0.000000 0.000000 0.000000
					CHANNELS 3 Zrotation Yrotation Xrotation
					JOINT RightArm
					{
						OFFSET -3.136600 1.374050 -0.404650
						CHANNELS 3 Zrotation Yrotation Xrotation
						JOINT RightForeArm
						{
							OFFSET -5.241900 -0.000000 -0.000000
							CHANNELS 3 Zrotation Yrotation Xrotation
							JOINT RightHand
							{
								OFFSET -3.444170 -0.000000 -0.000000
								CHANNELS 3 Zrotation Yrotation Xrotation
								JOINT RightFingerBase
								{
									OFFSET 0.000000 0.000000 0.000000
									CHANNELS 3 Zrotation Yrotation Xrotation
									JOINT RightHandIndex1
									{
										OFFSET -0.622530 -0.000000 -0.000000
										CHANNELS 3 Zrotation Yrotation Xrotation
										End Site
										{
											OFFSET 0.000000 0.000000 0.000000
										}
									}
								}
								JOINT RThumb
								{
									OFFSET 0.000000 0.000000 0.000000
									CHANNELS 3 Zrotation Yrotation Xrotation
									End Site
									{
										OFFSET 0.000000 0.000000 0.000000
									}
								}
							}
						}
					}
				}
			}
		}
	}
}
}
MOTION
Frames: 7
Frame Time: 0.008333
4.712148 17.408214 1.565143 -173.512514 -88.205074 -167.411691 8.077813 -3.144851 -6.987257 0.989807 -4.055223 -4.351208 -7.282190 -4.058039 -0.570608 8.371097 -10.426619 -6.130489 -3.664447 -0.294230 0.442262 0.000000 0.000000 0.000000 5.462203 1.267647 1.583452 -52.967881 -20.669575 27.359471 -179.516918 -83.575711 179.990904 1.296621 2.269667 0.025724 -0.128534 0.462126 -0.000000 0.000000 0.000000 0.000000 0.000000 0.000000 0.000000 10.638281 -6.289047 0.195800 59.321312 9.135020 -3.320047 179.746277 86.996557 179.997345 -0.651058 5.741306 -0.034130 0.001459 -0.453696 0.000000 0.000000 0.000000 0.000000 0.000000 0.000000 0.000000 
4.468731 17.336051 1.525562 174.420625 -87.613393 -155.361623 7.899031 -3.002135 -7.135233 0.909906 -3.903852 -4.367081 -7.424284 -3.901213 -0.544656 8.117355 -10.336241 -6.197113 -3.733573 -0.298432 0.419204 0.000000 0.000000 0.000000 5.429367 1.525141 1.636538 -51.393124 -21.722459 26.795271 -179.432680 -82.578069 179.991811 1.226564 1.955191 0.020736 -0.130455 0.477059 -0.000000 0.000000 0.000000 0.000000 0.000000 0.000000 0.000000 10.651003 -6.111638 0.177239 59.972071 8.437890 -4.401202 179.761788 87.038912 179.993384 -1.216939 5.890968 -0.066577 0.006057 -0.457842 0.000000 0.000000 0.000000 0.000000 0.000000 0.000000 0.000000 
4.225689 17.260551 1.487934 169.048563 -87.229814 -149.964586 7.891399 -2.892682 -7.333940 0.873037 -3.806905 -4.388881 -7.565045 -3.797981 -0.511541 7.842123 -10.239552 -6.264121 -3.808922 -0.303161 0.395862 0.000000 0.000000 0.000000 5.290615 1.798330 1.693632 -49.808081 -22.784153 26.070186 -179.354489 -81.666264 179.992280 1.230619 1.557146 0.015884 -0.134069 0.495725 -0.000000 0.000000 0.000000 0.000000 0.000000 0.000000 0.000000 10.678384 -5.962953 0.154827 60.588044 7.799174 -5.444783 179.780346 87.172586 179.989180 -1.811586 6.047263 -0.102433 0.010963 -0.461160 0.000000 0.000000 0.000000 0.000000 0.000000 0.000000 0.000000 
3.984177 17.183024 1.451864 166.884865 -86.942489 -147.763109 8.006276 -2.783310 -7.523961 0.860761 -3.721964 -4.409719 -7.701107 -3.705453 -0.482010 7.551378 -10.131189 -6.330955 -3.888496 -0.308171 0.371922 0.000000 0.000000 0.000000 5.084081 2.090496 1.743195 -48.265263 -23.814233 25.183453 -179.287488 -80.856174 179.992142 1.320934 1.086335 0.010555 -0.139024 0.517626 -0.000000 0.000000 0.000000 0.000000 0.000000 0.000000 0.000000 10.716941 -5.816392 0.136737 61.190694 7.229044 -6.452506 179.802286 87.426562 179.984727 -2.441870 6.213020 -0.142196 0.016404 -0.463825 -0.000000 0.000000 0.000000 0.000000 0.000000 0.000000 0.000000 
3.745581 17.104894 1.416900 165.889434 -86.729905 -146.764375 8.167083 -2.682361 -7.649868 0.858615 -3.646687 -4.420735 -7.825767 -3.622643 -0.463110 7.254043 -10.012675 -6.395960 -3.970124 -0.313237 0.347489 0.000000 0.000000 0.000000 4.849895 2.383026 1.779399 -46.822250 -24.783509 24.147329 -179.235029 -80.165748 179.991230 1.503829 0.561544 0.003740 -0.145196 0.542052 -0.000000 0.000000 0.000000 0.000000 0.000000 0.000000 0.000000 10.767484 -5.674987 0.125994 61.798419 6.740623 -7.424963 179.828028 87.827374 179.979950 -3.121013 6.384752 -0.186968 0.022454 -0.465826 0.000000 0.000000 0.000000 0.000000 0.000000 0.000000 0.000000 
3.510975 17.028014 1.382788 165.114275 -86.594166 -146.056807 8.328125 -2.600744 -7.670898 0.859219 -3.585068 -4.415232 -7.933550 -3.554709 -0.460486 6.956670 -9.881710 -6.455605 -4.052199 -0.318212 0.323323 0.000000 0.000000 0.000000 4.616049 2.657453 1.800332 -45.535970 -25.670379 22.984464 -179.199044 -79.610743 179.989394 1.781096 0.005492 -0.005965 -0.152577 0.568125 -0.000000 0.000000 0.000000 0.000000 0.000000 0.000000 0.000000 10.829293 -5.540668 0.123961 62.424513 6.340065 -8.366274 179.857485 88.393563 179.974762 -3.862900 6.554268 -0.237646 0.029117 -0.467060 0.000000 0.000000 0.000000 0.000000 0.000000 0.000000 0.000000 
3.280981 16.954736 1.349703 164.314469 -86.542227 -145.407802 8.479557 -2.542342 -7.571058 0.861609 -3.538702 -4.390769 -8.021025 -3.503856 -0.476647 6.662962 -9.736690 -6.507156 -4.134025 -0.323033 0.300104 0.000000 0.000000 0.000000 4.390583 2.903962 1.806835 -44.455967 -26.462275 21.726279 -179.180044 -79.203595 179.986537 2.148967 -0.558710 -0.019663 -0.161227 0.594863 -0.000000 0.000000 0.000000 0.000000 0.000000 0.000000 0.000000 10.902024 -5.414030 0.131109 63.071737 6.032727 -9.277123 179.889809 89.135191 179.969086 -4.682457 6.707664 -0.294738 0.036468 -0.467332 0.000000 0.000000 0.000000 0.000000 0.000000 0.000000 0.000000 
